<svg id="svg" xmlns="http://www.w3.org/2000/svg" xmlns:xlink="http://www.w3.org/1999/xlink" width="400" height="68.7016687016687" viewBox="0, 0, 400,68.7016687016687"><g id="svgg"><path id="path0" d="M377.917 19.602 C 375.167 21.019,371.848 22.719,370.542 23.379 C 369.235 24.038,368.167 24.617,368.168 24.664 C 368.169 24.759,368.588 24.977,377.113 29.336 C 380.338 30.984,383.104 32.333,383.260 32.333 C 383.416 32.333,386.252 30.947,389.563 29.254 C 397.786 25.047,398.331 24.762,398.330 24.667 C 398.327 24.497,383.546 17.000,383.237 17.012 C 383.061 17.019,380.667 18.184,377.917 19.602 M384.857 20.074 C 387.420 20.617,389.484 22.494,389.496 24.292 C 389.501 24.954,389.678 24.974,387.814 24.098 C 385.141 22.842,382.231 22.246,379.328 22.359 C 377.618 22.425,377.604 22.413,378.492 21.610 C 380.134 20.127,382.460 19.566,384.857 20.074 M384.025 24.398 C 385.625 24.804,387.750 25.739,388.584 26.404 L 389.032 26.761 388.334 27.479 C 386.393 29.479,382.853 30.017,380.015 28.743 C 377.431 27.584,375.910 24.258,377.833 23.972 C 379.261 23.759,382.344 23.971,384.025 24.398 M366.758 33.652 C 366.845 33.736,369.204 35.019,372.000 36.503 C 377.936 39.655,377.713 39.500,376.314 39.500 C 375.240 39.500,375.182 39.475,371.062 37.280 C 366.094 34.632,366.330 34.736,366.346 35.214 C 366.356 35.514,366.695 35.749,368.138 36.460 C 369.116 36.943,370.779 37.805,371.833 38.377 L 373.750 39.417 370.042 39.462 L 366.333 39.506 366.333 40.087 L 366.333 40.667 374.000 40.667 L 381.667 40.667 381.667 37.083 L 381.667 33.500 381.083 33.500 L 380.500 33.500 380.500 36.167 C 380.500 37.982,380.442 38.833,380.318 38.833 C 380.218 38.833,377.891 37.633,375.146 36.167 L 370.156 33.500 368.378 33.500 C 367.300 33.500,366.662 33.560,366.758 33.652 M384.944 33.611 C 384.883 33.672,384.833 35.285,384.833 37.194 L 384.833 40.667 392.417 40.667 L 400.000 40.667 400.000 40.087 L 400.000 39.507 396.375 39.462 L 392.750 39.417 396.372 37.500 L 399.994 35.583 399.997 34.521 C 399.999 33.696,399.954 33.495,399.792 33.621 C 399.677 33.711,398.796 34.200,397.833 34.709 C 396.871 35.218,394.440 36.508,392.431 37.575 L 388.778 39.514 387.681 39.465 L 386.583 39.417 388.417 38.437 C 389.425 37.898,390.850 37.138,391.583 36.747 C 397.836 33.413,397.694 33.500,396.885 33.500 C 396.538 33.500,394.744 34.370,391.393 36.165 C 388.656 37.631,386.323 38.831,386.208 38.832 C 386.050 38.833,386.000 38.190,386.000 36.167 L 386.000 33.500 385.528 33.500 C 385.268 33.500,385.006 33.550,384.944 33.611 M366.446 44.276 C 366.384 44.338,366.333 44.637,366.333 44.941 L 366.333 45.494 370.002 45.538 L 373.671 45.583 370.164 47.458 C 368.235 48.490,366.584 49.333,366.495 49.333 C 366.406 49.333,366.333 49.821,366.333 50.417 C 366.333 51.674,366.271 51.634,367.289 51.025 C 367.726 50.764,370.236 49.410,372.866 48.017 L 377.649 45.484 378.759 45.534 L 379.869 45.583 377.393 46.900 C 376.031 47.624,373.717 48.850,372.250 49.625 C 369.140 51.269,368.823 51.500,369.681 51.500 C 370.003 51.500,370.338 51.433,370.425 51.351 C 370.588 51.197,380.306 46.000,380.431 46.000 C 380.469 46.000,380.500 47.237,380.500 48.750 L 380.500 51.500 381.087 51.500 L 381.673 51.500 381.628 47.875 L 381.583 44.250 374.071 44.207 C 369.939 44.183,366.508 44.214,366.446 44.276 M384.944 44.278 C 384.883 44.339,384.833 45.989,384.833 47.944 L 384.833 51.500 385.417 51.500 L 386.000 51.500 386.000 48.750 C 386.000 47.237,386.044 46.000,386.099 46.000 C 386.217 46.000,393.997 50.138,395.387 50.940 C 396.322 51.480,396.422 51.500,398.131 51.500 C 400.404 51.500,400.593 51.657,394.284 48.308 L 389.151 45.583 390.286 45.535 L 391.420 45.487 395.630 47.744 C 400.306 50.250,400.000 50.113,400.000 49.693 C 400.000 49.465,399.140 48.930,396.625 47.592 C 394.769 46.605,393.179 45.730,393.092 45.649 C 392.999 45.561,394.389 45.500,396.467 45.500 L 400.000 45.500 400.000 44.833 L 400.000 44.167 392.528 44.167 C 388.418 44.167,385.006 44.217,384.944 44.278 " stroke="none" fill="#f8ed97" fill-rule="evenodd"></path><path id="path1" d="M366.333 24.583 L 366.333 33.500 383.167 33.500 L 400.000 33.500 400.000 24.583 L 400.000 15.667 383.167 15.667 L 366.333 15.667 366.333 24.583 M390.943 20.792 C 395.005 22.877,398.329 24.621,398.330 24.667 C 398.331 24.762,397.786 25.047,389.563 29.254 C 386.252 30.947,383.416 32.333,383.260 32.333 C 383.104 32.333,380.338 30.984,377.113 29.336 C 368.588 24.977,368.169 24.759,368.168 24.664 C 368.167 24.617,369.235 24.038,370.542 23.379 C 371.848 22.719,375.167 21.019,377.917 19.602 C 380.667 18.184,383.061 17.019,383.237 17.012 C 383.413 17.005,386.881 18.706,390.943 20.792 M382.960 19.951 C 383.168 19.991,383.468 19.990,383.627 19.948 C 383.786 19.906,383.617 19.874,383.250 19.875 C 382.883 19.877,382.753 19.911,382.960 19.951 M382.795 29.454 C 383.094 29.491,383.544 29.490,383.795 29.452 C 384.045 29.414,383.800 29.384,383.250 29.385 C 382.700 29.386,382.495 29.417,382.795 29.454 " stroke="none" fill="#058434" fill-rule="evenodd"></path><path id="path2" d="M366.333 34.172 C 366.333 34.648,366.415 34.875,366.614 34.952 C 366.769 35.011,368.771 36.059,371.062 37.280 C 375.182 39.475,375.240 39.500,376.314 39.500 C 377.713 39.500,377.936 39.655,372.000 36.503 C 369.204 35.019,366.845 33.736,366.758 33.652 C 366.453 33.359,366.333 33.506,366.333 34.172 M381.667 37.083 L 381.667 40.667 374.000 40.667 L 366.333 40.667 366.333 42.458 L 366.333 44.250 373.958 44.250 L 381.583 44.250 381.628 47.875 L 381.673 51.500 383.250 51.500 L 384.827 51.500 384.872 47.875 L 384.917 44.250 392.458 44.207 L 400.000 44.163 400.000 42.415 L 400.000 40.667 392.410 40.667 L 384.821 40.667 384.869 37.083 L 384.917 33.500 383.292 33.500 L 381.667 33.500 381.667 37.083 M397.242 33.653 C 397.100 33.790,395.976 34.405,391.583 36.747 C 390.850 37.138,389.425 37.898,388.417 38.437 L 386.583 39.417 387.681 39.465 L 388.778 39.514 392.431 37.575 C 394.440 36.508,396.871 35.219,397.833 34.711 C 400.114 33.506,400.118 33.500,398.650 33.500 C 397.962 33.500,397.329 33.569,397.242 33.653 M372.750 48.083 C 370.092 49.498,367.617 50.828,367.250 51.037 L 366.583 51.417 367.812 51.466 C 368.697 51.502,369.116 51.449,369.312 51.277 C 369.461 51.146,370.896 50.344,372.500 49.495 C 377.159 47.030,379.745 45.643,379.819 45.569 C 379.858 45.531,379.370 45.502,378.736 45.504 L 377.583 45.509 372.750 48.083 M389.181 45.567 C 389.219 45.603,391.537 46.849,394.333 48.336 C 397.129 49.822,399.548 51.153,399.708 51.295 C 399.981 51.535,400.000 51.503,400.000 50.816 L 400.000 50.081 395.720 47.791 L 391.440 45.500 390.276 45.500 C 389.635 45.500,389.142 45.530,389.181 45.567 " stroke="none" fill="#cc162e" fill-rule="evenodd"></path><path id="path3" d="M381.291 20.171 C 380.096 20.472,377.834 21.871,377.833 22.309 C 377.833 22.368,378.506 22.391,379.328 22.359 C 382.232 22.246,385.141 22.842,387.818 24.100 C 389.587 24.931,389.574 24.932,389.421 24.024 C 388.954 21.263,384.790 19.289,381.291 20.171 M377.833 23.972 L 377.083 24.083 377.107 24.968 C 377.222 29.272,385.170 30.994,388.326 27.399 C 388.997 26.636,388.987 26.605,387.875 25.959 C 385.108 24.351,380.892 23.516,377.833 23.972 M380.333 36.083 C 380.333 37.504,380.301 38.667,380.261 38.667 C 380.221 38.667,379.340 38.209,378.303 37.649 C 375.897 36.350,373.500 35.144,373.500 35.231 C 373.500 35.336,380.125 38.833,380.324 38.833 C 380.440 38.833,380.500 37.927,380.500 36.167 C 380.500 34.700,380.462 33.500,380.417 33.500 C 380.371 33.500,380.333 34.662,380.333 36.083 M386.037 36.125 C 386.010 38.076,386.054 38.833,386.192 38.833 C 386.406 38.833,393.333 35.181,393.333 35.068 C 393.333 34.974,391.108 36.094,388.461 37.522 C 387.294 38.152,386.302 38.667,386.257 38.667 C 386.212 38.667,386.152 37.485,386.125 36.042 L 386.074 33.417 386.037 36.125 M394.969 34.065 C 394.447 34.354,393.960 34.654,393.885 34.732 C 393.742 34.882,395.577 33.966,396.000 33.676 C 396.525 33.317,395.875 33.562,394.969 34.065 M371.000 33.912 C 371.000 33.958,371.525 34.260,372.167 34.583 C 372.808 34.906,373.333 35.133,373.333 35.088 C 373.333 35.042,372.808 34.740,372.167 34.417 C 371.525 34.094,371.000 33.867,371.000 33.912 M396.372 37.481 C 394.514 38.473,392.945 39.333,392.886 39.392 C 392.826 39.451,394.422 39.483,396.431 39.462 L 400.083 39.424 396.669 39.375 L 393.255 39.326 396.419 37.650 C 399.185 36.186,400.103 35.652,399.825 35.672 C 399.784 35.675,398.230 36.489,396.372 37.481 M367.083 35.961 C 367.175 36.059,368.600 36.856,370.250 37.733 L 373.250 39.326 369.750 39.375 L 366.250 39.424 369.958 39.462 C 371.998 39.483,373.667 39.469,373.667 39.430 C 373.667 39.354,372.059 38.474,368.917 36.830 C 367.817 36.254,366.992 35.863,367.083 35.961 M369.716 45.625 C 372.022 45.659,372.982 45.728,372.904 45.854 C 372.810 46.007,373.413 45.771,373.653 45.561 C 373.691 45.527,372.078 45.517,370.069 45.538 L 366.417 45.576 369.716 45.625 M393.092 45.646 C 393.321 45.858,396.608 47.583,396.451 47.409 C 396.378 47.328,395.665 46.906,394.867 46.470 L 393.417 45.678 396.750 45.627 L 400.083 45.576 396.508 45.538 C 394.452 45.516,393.001 45.562,393.092 45.646 M371.458 46.567 C 370.062 47.360,370.062 47.466,371.458 46.767 C 372.123 46.435,372.667 46.126,372.667 46.081 C 372.667 45.923,372.406 46.028,371.458 46.567 M378.631 46.899 C 376.451 48.066,376.343 48.242,378.455 47.186 C 379.393 46.717,380.198 46.333,380.243 46.333 C 380.288 46.333,380.348 47.515,380.375 48.958 L 380.426 51.583 380.463 48.792 C 380.483 47.256,380.444 46.007,380.375 46.017 C 380.306 46.026,379.522 46.423,378.631 46.899 M386.037 48.792 L 386.074 51.583 386.125 48.894 L 386.175 46.204 388.087 47.197 C 389.139 47.743,390.000 48.153,390.000 48.109 C 390.000 48.022,386.257 46.000,386.096 46.000 C 386.043 46.000,386.017 47.256,386.037 48.792 M368.297 48.286 C 367.314 48.807,366.536 49.258,366.567 49.289 C 366.634 49.356,370.167 47.504,370.167 47.402 C 370.167 47.295,370.186 47.286,368.297 48.286 M397.000 47.746 C 397.000 47.792,397.525 48.094,398.167 48.417 C 398.808 48.740,399.333 48.967,399.333 48.921 C 399.333 48.875,398.808 48.573,398.167 48.250 C 397.525 47.927,397.000 47.700,397.000 47.746 M375.458 48.594 C 374.840 48.911,374.333 49.209,374.333 49.254 C 374.333 49.300,374.858 49.073,375.500 48.750 C 376.142 48.427,376.667 48.126,376.667 48.081 C 376.667 47.969,376.713 47.950,375.458 48.594 M390.167 48.245 C 390.167 48.291,390.617 48.556,391.167 48.833 C 391.717 49.111,392.167 49.301,392.167 49.255 C 392.167 49.209,391.717 48.944,391.167 48.667 C 390.617 48.389,390.167 48.199,390.167 48.245 M372.941 49.936 C 372.313 50.258,371.836 50.558,371.880 50.602 C 371.961 50.684,374.167 49.526,374.167 49.401 C 374.167 49.305,374.196 49.292,372.941 49.936 M393.083 49.786 C 393.175 49.875,393.925 50.300,394.750 50.730 C 395.575 51.161,396.109 51.401,395.936 51.263 C 395.552 50.958,392.850 49.558,393.083 49.786 M370.943 51.019 C 370.590 51.205,370.337 51.393,370.380 51.435 C 370.459 51.515,371.667 50.856,371.667 50.734 C 371.667 50.639,371.654 50.644,370.943 51.019 " stroke="none" fill="#0e4688" fill-rule="evenodd"></path><path id="path4" d="M168.500 25.500 L 168.500 51.000 169.833 51.000 L 171.167 51.000 171.167 25.500 L 171.167 0.000 169.833 0.000 L 168.500 0.000 168.500 25.500 M0.000 27.058 L 0.000 51.000 1.333 51.000 L 2.667 51.000 2.667 40.950 L 2.667 30.899 5.458 30.691 C 18.113 29.746,23.461 26.327,24.340 18.620 C 24.867 13.996,22.678 9.234,19.160 7.353 C 13.795 4.484,9.734 3.447,2.958 3.217 L 0.000 3.117 0.000 27.058 M190.546 4.757 C 190.108 5.357,189.450 6.228,189.083 6.693 C 188.717 7.158,187.461 8.749,186.292 10.228 C 183.789 13.396,183.809 13.333,185.297 13.333 L 186.428 13.333 188.526 11.042 C 189.680 9.781,190.802 8.540,191.020 8.283 L 191.417 7.817 194.054 10.575 L 196.692 13.333 197.763 13.333 C 199.066 13.333,199.065 13.340,197.865 11.814 C 197.333 11.137,196.713 10.310,196.487 9.977 C 195.809 8.973,191.593 3.686,191.462 3.676 C 191.396 3.671,190.983 4.157,190.546 4.757 M88.833 11.167 L 88.833 16.667 84.917 16.667 L 81.000 16.667 81.000 18.167 L 81.000 19.667 84.917 19.667 L 88.833 19.667 88.833 35.333 L 88.833 51.000 90.167 51.000 L 91.500 51.000 91.500 35.333 L 91.500 19.667 95.500 19.667 L 99.500 19.667 99.500 18.167 L 99.500 16.667 95.500 16.667 L 91.500 16.667 91.500 11.167 L 91.500 5.667 90.167 5.667 L 88.833 5.667 88.833 11.167 M6.208 6.261 C 13.822 6.859,18.682 9.289,20.835 13.575 L 21.417 14.734 21.417 17.329 C 21.417 24.269,15.476 27.951,4.208 27.994 L 2.667 28.000 2.667 16.990 L 2.667 5.980 3.833 6.073 C 4.475 6.125,5.544 6.209,6.208 6.261 M38.174 16.244 C 30.524 17.698,26.362 27.824,28.349 40.141 C 29.582 47.777,35.680 52.323,42.799 50.912 C 49.523 49.579,53.055 43.449,53.073 33.083 C 53.093 21.416,47.027 14.560,38.174 16.244 M144.083 16.395 C 137.999 18.529,134.911 24.102,134.928 32.917 C 134.951 45.072,139.856 49.445,155.149 50.942 L 156.047 51.030 155.932 53.101 C 155.534 60.272,153.395 64.528,149.604 65.693 C 146.813 66.551,143.083 65.213,140.256 62.341 C 139.161 61.228,139.167 61.223,139.167 63.315 L 139.167 65.129 140.298 66.043 C 146.463 71.024,154.064 69.012,157.158 61.579 C 158.808 57.614,158.833 57.222,158.833 35.340 L 158.833 16.667 157.422 16.667 L 156.011 16.667 155.964 18.567 L 155.917 20.468 154.750 19.390 C 151.591 16.472,147.299 15.267,144.083 16.395 M188.273 16.253 C 181.447 17.985,177.425 25.888,178.481 35.492 C 179.622 45.872,185.895 50.493,199.458 50.945 L 202.667 51.052 202.667 49.717 L 202.667 48.383 200.292 48.271 C 190.535 47.812,183.686 44.745,182.487 40.298 C 182.405 39.996,182.144 39.037,181.907 38.167 C 181.643 37.199,181.438 35.919,181.380 34.876 L 181.286 33.169 191.851 33.126 L 202.417 33.083 202.464 29.917 C 202.560 23.399,200.864 19.898,196.403 17.403 C 194.384 16.274,190.407 15.711,188.273 16.253 M216.648 16.168 C 209.977 16.807,206.726 20.008,207.334 25.338 C 207.606 27.728,208.460 29.200,210.421 30.663 C 212.233 32.016,213.093 32.291,218.243 33.164 C 225.540 34.402,227.592 35.630,228.138 39.088 C 229.099 45.172,222.976 48.329,210.208 48.333 L 208.000 48.333 208.000 49.771 L 208.000 51.209 211.542 51.093 C 221.531 50.766,225.594 49.797,228.703 47.000 C 232.127 43.919,232.004 37.392,228.460 34.201 C 226.305 32.261,225.041 31.769,219.146 30.579 C 211.690 29.074,208.976 26.564,210.324 22.417 C 211.285 19.457,218.212 18.205,226.500 19.491 C 227.737 19.684,229.069 19.887,229.458 19.943 L 230.167 20.045 230.167 18.541 L 230.167 17.037 229.625 16.941 C 225.335 16.181,219.894 15.857,216.648 16.168 M258.394 16.249 C 251.520 17.744,247.935 23.922,248.210 33.800 C 248.537 45.536,255.533 50.985,270.292 50.998 L 272.167 51.000 272.167 49.689 L 272.167 48.378 269.708 48.261 C 262.673 47.926,257.586 46.442,254.860 43.930 C 254.003 43.141,252.766 41.567,252.621 41.083 C 252.567 40.900,252.325 40.229,252.085 39.592 C 249.516 32.781,251.549 22.999,256.135 20.104 C 259.850 17.758,266.549 19.359,268.779 23.125 L 269.198 23.833 270.694 23.833 C 272.418 23.833,272.390 23.896,271.461 22.132 C 269.263 17.954,263.169 15.210,258.394 16.249 M286.250 16.235 C 279.686 17.516,275.833 24.334,275.835 34.667 C 275.837 45.224,280.377 51.066,288.583 51.071 C 296.389 51.076,300.822 45.008,301.114 33.917 C 301.431 21.860,295.229 14.482,286.250 16.235 M318.097 16.260 C 316.107 16.656,314.000 17.808,311.792 19.708 L 310.833 20.533 310.833 18.600 L 310.833 16.667 309.500 16.667 L 308.167 16.667 308.167 33.833 L 308.167 51.000 309.500 51.000 L 310.833 51.000 310.833 37.761 L 310.833 24.521 312.400 22.954 C 318.844 16.511,324.839 18.061,327.720 26.917 C 328.560 29.499,328.583 29.869,328.583 40.792 L 328.583 51.000 329.958 51.000 L 331.333 51.000 331.333 40.787 C 331.333 30.174,331.273 28.964,330.608 26.327 L 330.224 24.805 330.556 24.361 C 335.624 17.574,342.855 17.259,346.603 23.662 C 349.011 27.775,349.094 28.362,349.034 40.792 L 348.985 51.000 350.409 51.000 L 351.833 51.000 351.833 40.954 C 351.833 29.558,351.776 28.767,350.645 24.583 C 349.360 19.826,343.980 15.726,339.462 16.060 C 336.015 16.315,333.237 17.706,330.458 20.568 C 329.718 21.329,329.109 21.831,329.034 21.741 C 328.961 21.654,328.467 21.003,327.935 20.294 C 325.473 17.010,321.834 15.518,318.097 16.260 M70.167 16.551 C 68.080 17.311,65.768 18.763,63.917 20.478 L 63.083 21.250 63.000 19.000 L 62.917 16.750 61.542 16.702 L 60.167 16.653 60.167 33.827 L 60.167 51.000 61.583 51.000 L 63.000 51.000 63.000 38.108 L 63.000 25.217 63.471 24.567 C 67.881 18.483,76.107 17.142,76.918 22.375 L 77.015 23.000 78.341 23.000 L 79.667 23.000 79.667 22.491 C 79.667 17.907,74.800 14.863,70.167 16.551 M104.044 27.708 C 104.116 39.968,104.088 39.628,105.328 43.333 C 106.216 45.985,107.140 47.321,109.251 49.001 C 114.039 52.811,118.585 52.569,124.042 48.216 L 125.167 47.319 125.167 49.159 L 125.167 51.000 126.500 51.000 L 127.833 51.000 127.833 33.833 L 127.833 16.667 126.500 16.667 L 125.167 16.667 125.167 29.970 L 125.167 43.273 123.708 44.694 C 117.357 50.884,111.884 50.084,108.335 42.449 C 106.819 39.187,106.655 37.433,106.785 25.792 L 106.887 16.667 105.433 16.667 L 103.979 16.667 104.044 27.708 M149.486 19.313 C 151.336 20.016,153.633 21.726,155.104 23.495 L 156.000 24.572 156.000 36.395 L 156.000 48.217 153.875 48.119 C 146.751 47.789,141.662 45.250,139.510 40.950 C 134.306 30.552,140.978 16.080,149.486 19.313 M42.667 19.178 C 48.806 20.565,51.564 28.533,49.674 39.416 C 48.731 44.844,45.185 48.331,40.574 48.363 C 34.566 48.406,30.924 43.501,30.709 35.081 C 30.424 23.863,35.213 17.493,42.667 19.178 M193.583 19.402 C 197.204 20.674,199.355 23.901,199.618 28.458 L 199.717 30.167 190.525 30.167 C 185.470 30.167,181.333 30.139,181.333 30.105 C 181.333 27.555,183.345 22.599,184.979 21.122 C 187.179 19.135,190.774 18.416,193.583 19.402 M291.017 19.303 C 295.418 20.524,297.922 24.874,298.277 31.917 C 298.894 44.149,292.455 51.290,284.333 47.382 C 278.504 44.577,276.719 31.820,280.973 23.369 C 282.704 19.931,287.004 18.190,291.017 19.303 M236.500 47.583 L 236.500 51.008 239.292 50.962 L 242.083 50.917 242.083 47.583 L 242.083 44.250 239.292 44.204 L 236.500 44.159 236.500 47.583 " stroke="none" fill="#040404" fill-rule="evenodd"></path><path id="path5" d="M370.667 33.574 C 370.667 33.614,371.923 34.302,373.458 35.101 C 374.994 35.901,377.136 37.030,378.219 37.611 C 379.301 38.192,380.220 38.667,380.260 38.667 C 380.300 38.667,380.333 37.504,380.333 36.083 L 380.333 33.500 375.500 33.500 C 372.842 33.500,370.667 33.533,370.667 33.574 M386.167 36.083 C 386.167 37.504,386.203 38.667,386.246 38.667 C 386.290 38.667,387.509 38.039,388.955 37.272 C 390.401 36.505,392.540 35.375,393.708 34.762 C 394.877 34.150,395.833 33.615,395.833 33.574 C 395.833 33.533,393.658 33.500,391.000 33.500 L 386.167 33.500 386.167 36.083 M366.333 37.500 L 366.333 39.333 369.792 39.332 L 373.250 39.330 370.264 37.738 C 368.621 36.863,367.124 36.039,366.935 35.907 C 366.367 35.509,366.333 35.597,366.333 37.500 M399.742 35.821 C 399.655 35.905,398.158 36.730,396.417 37.653 L 393.250 39.331 396.625 39.332 L 400.000 39.333 400.000 37.500 C 400.000 36.492,399.978 35.667,399.950 35.667 C 399.922 35.667,399.829 35.736,399.742 35.821 M366.333 47.464 L 366.333 49.345 367.958 48.481 C 368.852 48.006,370.238 47.253,371.039 46.808 C 371.839 46.364,372.566 46.000,372.654 46.000 C 372.742 46.000,372.858 45.928,372.913 45.840 C 372.974 45.741,371.750 45.662,369.672 45.632 L 366.333 45.583 366.333 47.464 M394.500 46.274 C 396.162 47.201,399.853 49.167,399.931 49.167 C 399.969 49.167,400.000 48.379,400.000 47.417 L 400.000 45.667 396.708 45.669 L 393.417 45.670 394.500 46.274 M386.167 48.832 L 386.167 51.500 391.125 51.499 C 395.992 51.499,396.074 51.493,395.583 51.195 C 395.308 51.029,393.471 50.044,391.500 49.008 C 389.529 47.972,387.523 46.908,387.042 46.644 L 386.167 46.164 386.167 48.832 M379.083 46.859 C 378.533 47.140,376.996 47.951,375.667 48.663 C 374.337 49.375,372.725 50.238,372.083 50.581 C 371.442 50.924,370.845 51.272,370.758 51.353 C 370.666 51.438,372.638 51.500,375.467 51.500 L 380.333 51.500 380.333 48.917 C 380.333 47.496,380.277 46.337,380.208 46.341 C 380.140 46.346,379.633 46.579,379.083 46.859 " stroke="none" fill="#04247c" fill-rule="evenodd"></path></g></svg>
